Coordinates
version=1
nRows=14
nColumns=36
inDegrees=yes

Units are S.I. units (second, meters, Newtons, ...)
If the header above contains a line with 'inDegrees', this indicates whether rotational values are in degrees (yes) or radians (no).

endheader
time	pelvis_tilt	pelvis_list	pelvis_rotation	pelvis_tx	pelvis_ty	pelvis_tz	hip_flexion_r	hip_adduction_r	hip_rotation_r	knee_angle_r	knee_angle_r_beta	ankle_angle_r	subtalar_angle_r	mtp_angle_r	hip_flexion_l	hip_adduction_l	hip_rotation_l	knee_angle_l	knee_angle_l_beta	ankle_angle_l	subtalar_angle_l	mtp_angle_l	lumbar_extension	lumbar_bending	lumbar_rotation	arm_flex_r	arm_add_r	arm_rot_r	elbow_flex_r	pro_sup_r	arm_flex_l	arm_add_l	arm_rot_l	elbow_flex_l	pro_sup_l
      1.82000000	    -19.56517744	     -4.93980734	     -3.44076621	     -0.29493443	      0.55640676	     -0.54359507	     95.04512162	     -4.24733394	     -2.81163564	    110.33000626	      1.92562187	     33.33191578	    -10.47082120	     -7.34682460	     99.74173407	    -10.34328258	     15.47780606	    110.39379177	      1.92673514	     32.31423583	      1.59022964	     -7.34682460	    -38.86335008	      5.18640264	     -1.98219345	     18.43986972	    -27.91721336	     17.32015628	     47.19211351	    110.97737861	     -2.48993673	    -16.87756995	    -16.88129487	     42.87444486	     84.47800227
      1.83000000	    -20.62636169	     -4.79993854	     -3.23003714	     -0.29520573	      0.55348450	     -0.54311936	     96.37818289	     -4.35290218	     -2.63103993	    110.54593039	      1.92939046	     33.02455308	    -10.75863363	     -7.34937713	    100.89445446	     -9.77210424	     15.58607976	    110.38119642	      1.92651531	     32.27050879	      1.26937643	     -7.34937713	    -39.18373543	      4.91511890	     -2.30144318	     17.84331666	    -27.46163340	     18.50064068	     45.05899753	    110.91195384	     -3.43398268	    -16.44275223	    -17.08994782	     40.72633622	     84.54282627
      1.84000000	    -21.76089142	     -4.56193439	     -2.88644339	     -0.29582681	      0.55063644	     -0.54262439	     97.85865518	     -4.55349292	     -2.34274641	    110.74732955	      1.93290554	     32.50435658	    -11.63027613	     -7.35939604	    102.17111651	     -9.23619638	     15.39143803	    110.27279017	      1.92462326	     31.73067551	      0.39412977	     -7.35939604	    -39.24345647	      4.66575325	     -3.88120455	     18.84659817	    -26.54156405	     22.81148562	     41.46924416	    110.89241078	     -5.46425168	    -16.15667648	    -17.67805591	     39.12530382	     85.77207367
      1.85000000	    -23.08715545	     -4.27540652	     -2.53699624	     -0.29665289	      0.54757737	     -0.54191816	     99.54676009	     -4.68917539	     -1.91282174	    110.93447701	      1.93617188	     32.58700210	    -11.71916110	     -7.36056609	    103.75790640	     -8.90122220	     15.05180612	    110.17857232	      1.92297885	     31.52692368	      0.64872047	     -7.36056609	    -39.11730690	      4.28274267	     -4.33337127	     17.38023472	    -26.09784280	     23.42094948	     40.96991230	    110.86818955	     -6.94611103	    -15.68921704	    -17.91590908	     38.76843502	     85.87630107
      1.86000000	    -24.26683185	     -4.05585025	     -2.19949296	     -0.29749941	      0.54550120	     -0.54106796	    100.97615901	     -4.68139418	     -1.50089043	    111.02012824	      1.93766677	     32.64576533	    -11.93267950	     -7.36139600	    105.05007535	     -8.46742519	     14.87083563	    109.97204775	      1.91937432	     31.28436239	      0.70603394	     -7.36139600	    -39.08649576	      3.91646741	     -4.70949796	     16.02380021	    -25.48840434	     23.97483967	     40.37595799	    110.84625371	     -8.25317597	    -15.22877666	    -18.07867527	     38.35872585	     85.93940349
      1.87000000	    -25.46510091	     -3.80936440	     -1.98152851	     -0.29845586	      0.54445302	     -0.54027030	    102.29457394	     -4.48568241	     -1.06496252	    110.83284854	      1.93439813	     32.49558902	    -12.32972123	     -7.36264298	    106.10606144	     -7.92120103	     14.79902717	    109.59918084	      1.91286656	     30.89316833	      0.46340106	     -7.36264298	    -39.00681590	      3.56823506	     -5.20300968	     15.07872089	    -24.68364043	     24.75544434	     39.53669688	    110.81135465	     -9.53703511	    -14.69866840	    -18.33331979	     37.97116229	     86.04836535
      1.88000000	    -26.16896735	     -3.65616704	     -1.84267074	     -0.29967005	      0.54479324	     -0.53952978	    102.97612549	     -4.18187366	     -0.82398013	    110.50440279	      1.92866567	     31.63732459	    -13.68936204	     -7.38840590	    106.61497510	     -7.48669338	     14.77530279	    109.15436087	      1.90510299	     30.10113456	     -0.61682697	     -7.38840590	    -39.33703186	      3.24571477	     -9.62248606	     20.71991161	    -22.11024276	     37.91536822	     32.32504265	    109.93873348	    -14.45960770	    -12.88393283	    -24.30894352	     40.41405557	     88.73716354
      1.89000000	    -27.14685647	     -3.58881174	     -1.72113653	     -0.30062070	      0.54574076	     -0.53896562	    103.71908528	     -3.93226750	     -0.67003397	    109.99324235	      1.91974423	     31.67584523	    -13.90750730	     -7.38908323	    107.26747741	     -7.12917939	     14.80403023	    108.56579588	      1.89483059	     29.99133975	     -0.72634089	     -7.38908323	    -39.38663379	      3.04907003	     -9.71298038	     19.81974366	    -21.45780352	     38.32139561	     32.04151767	    109.90267571	    -15.07494197	    -12.31292119	    -24.22442850	     40.12934900	     88.76865649
      1.90000000	    -28.32045461	     -3.62839575	     -1.49731649	     -0.30145448	      0.54703178	     -0.53863848	    104.58990653	     -3.87646371	     -0.59689999	    109.43205734	      1.90994971	     31.36323160	    -14.34671738	     -7.39043318	    108.09380783	     -6.62293338	     14.86453499	    107.88486125	      1.88294604	     29.55679766	     -1.18635842	     -7.39043318	    -38.98494544	      3.01059495	     -9.76108474	     19.22479621	    -20.58939383	     39.13757260	     30.93957628	    109.85497091	    -15.38548586	    -11.76764395	    -24.19462316	     39.50544250	     88.82459699
      1.91000000	    -29.29035145	     -3.81539639	     -1.35901782	     -0.30215190	      0.54975146	     -0.53809251	    105.07434988	     -3.76779194	     -0.73275945	    108.62966682	      1.89594535	     30.52175668	    -15.16913986	     -7.39353511	    108.60505245	     -6.24370639	     15.06658043	    107.04928080	      1.86836241	     28.66467648	     -2.22415748	     -7.39353511	    -38.70978631	      3.09615605	     -9.80737857	     19.51491538	    -19.28142063	     41.04762663	     28.41631155	    109.76295184	    -15.17464572	    -11.30470126	    -24.38587118	     38.03430240	     88.94487833
      1.92000000	    -30.00868542	     -3.84083084	     -1.18592960	     -0.30286339	      0.55337940	     -0.53754753	    105.29747431	     -3.71751837	     -0.75522104	    107.82244901	      1.88185674	     29.80788191	    -15.90792354	     -7.40637352	    108.74012732	     -5.97953298	     15.01673855	    106.11323260	      1.85202529	     28.20029245	     -2.83055756	     -7.40637352	    -38.64921454	      3.06384182	    -11.28000328	     21.67402562	    -17.46354931	     47.82110281	     24.50984062	    109.24010944	    -16.16563677	    -10.66951357	    -25.35141805	     37.90390765	     90.02867249
      1.93000000	    -30.87644811	     -3.93947435	     -0.98300137	     -0.30340984	      0.55739818	     -0.53712598	    105.52612588	     -3.79222524	     -0.89917808	    106.91767155	      1.86606540	     29.74775766	    -15.89056260	     -7.40772836	    108.95523168	     -5.69189953	     15.02273834	    105.09744311	      1.83429642	     27.92351289	     -2.90177276	     -7.40772836	    -38.32780986	      3.06562475	    -10.90631480	     21.38254054	    -16.74222898	     47.96594073	     23.56490724	    109.00212016	    -15.37298650	    -10.26866915	    -25.96776988	     37.33729939	     89.97450332
      1.94000000	    -31.41378428	     -3.97403489	     -0.87187506	     -0.30378865	      0.56241382	     -0.53656230	    105.32633852	     -3.73224992	     -0.96146148	    105.91403739	      1.84854868	     29.69249825	    -15.82660520	     -7.40796030	    108.73672118	     -5.61034134	     14.93997134	    104.04466687	      1.81592201	     27.86399271	     -2.90486279	     -7.40796030	    -38.36009675	      2.98487913	    -10.84430391	     21.45835038	    -16.07925982	     47.99262929	     23.52814677	    108.96455627	    -14.86640925	    -10.07202399	    -26.02313325	     37.28619537	     89.97065947
      1.95000000	    -32.09686399	     -4.22362879	     -0.80529414	     -0.30403240	      0.56790077	     -0.53600773	    105.12588747	     -3.65568627	     -1.27949128	    104.73774158	      1.82801844	     29.30640711	    -16.21151096	     -7.40979048	    108.65751683	     -5.51163893	     15.06510159	    102.89690773	      1.79588983	     27.17909279	     -3.65512651	     -7.40979048	    -37.94137570	      3.17235269	    -10.16999525	     21.75525401	    -14.80906204	     47.30623410	     21.23910771	    108.37890110	    -12.90787369	     -9.70139695	    -27.31045986	     35.32984658	     89.68657647
